<svg id="SvgjsSvg1014" width="256" height="256" xmlns="http://www.w3.org/2000/svg" version="1.1" xmlns:xlink="http://www.w3.org/1999/xlink" xmlns:svgjs="http://svgjs.com/svgjs"><defs id="SvgjsDefs1015"></defs><g id="SvgjsG1016"><svg xmlns="http://www.w3.org/2000/svg" viewBox="0 0 16 16" width="256" height="256"><g fill="#b08cba" fill-rule="evenodd" class="colorB08CBA svgShape"><path d="M2.30451408,4.28468629 L7.40016446,1.34593564 C7.59153393,1.23556952 7.83613895,1.30123571 7.94650507,1.49260518 C7.98155136,1.55337374 8,1.62229044 8,1.69244071 L8,14.2572366 C8,14.4781505 7.8209139,14.6572366 7.59999999,14.6572366 C7.52173764,14.6572366 7.44519454,14.6342781 7.3798517,14.5912048 L5.88567678,13.6062604 C5.77339864,13.5322478 5.70582506,13.4067699 5.70582506,13.2722922 L5.70582506,6.04334788 C5.70582506,5.82243397 5.52673896,5.64334787 5.30582506,5.64334787 C5.23379119,5.64334787 5.16309407,5.66279992 5.10119933,5.69964987 L2.70897534,7.12389609 C2.51915617,7.23690776 2.27366328,7.17464298 2.16065161,6.98482382 C2.12380165,6.92292908 2.1043496,6.85223196 2.1043496,6.78019809 L2.1043496,4.63119136 C2.1043496,4.48821728 2.18066097,4.35611454 2.30451408,4.28468629 Z" fill="#000000" class="color000 svgShape"></path><path d="M8.80016447,4.28468629 L13.8958149,1.34593564 C14.0871843,1.23556952 14.3317893,1.30123571 14.4421555,1.49260518 C14.4772018,1.55337374 14.4956504,1.62229044 14.4956504,1.69244071 L14.4956504,14.2572366 C14.4956504,14.4781505 14.3165643,14.6572366 14.0956504,14.6572366 C14.017388,14.6572366 13.9408449,14.6342781 13.8755021,14.5912048 L12.3813272,13.6062604 C12.269049,13.5322478 12.2014755,13.4067699 12.2014755,13.2722922 L12.2014755,6.04334788 C12.2014755,5.82243397 12.0223894,5.64334787 11.8014755,5.64334787 C11.7294416,5.64334787 11.6587445,5.66279992 11.5968497,5.69964987 L9.20462573,7.12389609 C9.01480657,7.23690776 8.76931367,7.17464298 8.656302,6.98482382 C8.61945205,6.92292908 8.6,6.85223196 8.6,6.78019809 L8.6,4.63119136 C8.6,4.48821728 8.67631137,4.35611454 8.80016447,4.28468629 Z" transform="matrix(-1 0 0 1 23.096 0)" fill="#000000" class="color000 svgShape"></path><path d="M10.8868386,6.89007782 L12.6439435,7.8851032 C12.7693327,7.95610945 12.8468386,8.08907041 12.8468386,8.23316878 L12.8468386,10.0106468 C12.8468386,10.2315607 12.6677525,10.4106468 12.4468386,10.4106468 C12.3760294,10.4106468 12.3064893,10.3918502 12.2453225,10.3561773 L10.8868386,9.56389867 L10.8868386,9.56389867 L10.8868386,6.89007782 Z" fill="#000000" class="color000 svgShape"></path></g></svg></g></svg>